<svg width="20" height="19" viewBox="0 0 20 19" fill="none" xmlns="http://www.w3.org/2000/svg">
<path d="M18.8334 8.78835C19.0502 8.62684 19.211 8.40153 19.2933 8.144C19.3756 7.88648 19.3752 7.60966 19.2922 7.35236C19.2092 7.09506 19.0478 6.87018 18.8306 6.70926C18.6133 6.54833 18.3512 6.45943 18.0809 6.45501L12.8309 6.25668C12.805 6.2549 12.7803 6.24569 12.7596 6.23017C12.7389 6.21464 12.7231 6.19346 12.7142 6.16918L10.9 1.26918C10.8089 1.01989 10.6433 0.804625 10.4258 0.652537C10.2082 0.50045 9.94922 0.418884 9.68378 0.418884C9.41835 0.418884 9.15932 0.50045 8.94178 0.652537C8.72423 0.804625 8.55868 1.01989 8.46753 1.26918L6.6592 6.18668C6.65026 6.21096 6.63449 6.23214 6.61379 6.24767C6.59309 6.26319 6.56834 6.2724 6.54253 6.27418L1.29253 6.47251C1.02222 6.47693 0.760062 6.56583 0.542826 6.72676C0.325589 6.88768 0.164164 7.11256 0.0811851 7.36986C-0.00179418 7.62716 -0.00216648 7.90398 0.0801204 8.1615C0.162407 8.41903 0.323227 8.64434 0.540029 8.80585L4.65836 12.0433C4.67897 12.0596 4.69438 12.0815 4.70267 12.1064C4.71097 12.1312 4.71179 12.158 4.70503 12.1833L3.28753 17.2058C3.21408 17.4616 3.22119 17.7338 3.30791 17.9854C3.39463 18.2369 3.55674 18.4557 3.77219 18.6118C3.98764 18.768 4.24597 18.854 4.51204 18.8582C4.7781 18.8623 5.03898 18.7844 5.2592 18.635L9.61086 15.7183C9.6323 15.7035 9.65773 15.6956 9.68378 15.6956C9.70983 15.6956 9.73526 15.7035 9.7567 15.7183L14.1084 18.635C14.3256 18.7895 14.5855 18.8725 14.8521 18.8725C15.1187 18.8725 15.3786 18.7895 15.5959 18.635C15.8114 18.4803 15.9736 18.2626 16.0603 18.0119C16.147 17.7612 16.1539 17.4898 16.08 17.235L14.6509 12.195C14.6433 12.1697 14.6437 12.1427 14.6521 12.1176C14.6604 12.0926 14.6763 12.0707 14.6975 12.055L18.8334 8.78835Z" fill="#FFD233"/>
</svg>
